<svg width="201" height="140" viewBox="0 0 201 140" fill="none" xmlns="http://www.w3.org/2000/svg">
<mask id="path-1-inside-1_202_48" fill="white">
<path d="M234 130H65C29.1015 130 0 100.899 0 65C0 29.1015 29.1015 0 65 0H234V130Z"/>
</mask>
<path d="M234 130V138H242V130H234ZM234 0H242V-8H234V0ZM234 130V122H65V130V138H234V130ZM65 130V122C33.5198 122 8 96.4802 8 65H0H-8C-8 105.317 24.6832 138 65 138V130ZM0 65H8C8 33.5198 33.5198 8 65 8V0V-8C24.6832 -8 -8 24.6832 -8 65H0ZM65 0V8H234V0V-8H65V0ZM234 0H226V130H234H242V0H234Z" fill="#DEE0E3" mask="url(#path-1-inside-1_202_48)"/>
<mask id="path-3-inside-2_202_48" fill="white">
<path d="M234 140H65C29.1015 140 0 110.899 0 75C0 39.1015 29.1015 10 65 10H234V140Z"/>
</mask>
<path d="M234 140V148H242V140H234ZM234 10H242V2H234V10ZM234 140V132H65V140V148H234V140ZM65 140V132C33.5198 132 8 106.48 8 75H0H-8C-8 115.317 24.6832 148 65 148V140ZM0 75H8C8 43.5198 33.5198 18 65 18V10V2C24.6832 2 -8 34.6832 -8 75H0ZM65 10V18H234V10V2H65V10ZM234 10H226V140H234H242V10H234Z" fill="#C0C1C7" mask="url(#path-3-inside-2_202_48)"/>
<circle cx="78" cy="78" r="60" fill="#C0C1C7"/>
</svg>
