<svg width="201" height="140" viewBox="0 0 201 140" fill="none" xmlns="http://www.w3.org/2000/svg">
<mask id="path-1-inside-1_96_413" fill="white">
<path fill-rule="evenodd" clip-rule="evenodd" d="M136 0H-33V130H136C171.899 130 201 100.899 201 65C201 29.1015 171.899 0 136 0Z"/>
</mask>
<path d="M-33 0H-41V-8H-33V0ZM-33 130V138H-41V130H-33ZM136 8H-33V-8H136V8ZM-25 0V130H-41V0H-25ZM-33 122H136V138H-33V122ZM136 122C167.48 122 193 96.4802 193 65H209C209 105.317 176.317 138 136 138V122ZM193 65C193 33.5198 167.48 8 136 8V-8C176.317 -8 209 24.6832 209 65H193Z" fill="#DEE0E3" mask="url(#path-1-inside-1_96_413)"/>
<mask id="path-3-inside-2_96_413" fill="white">
<path fill-rule="evenodd" clip-rule="evenodd" d="M136 10H-33V140H136C171.899 140 201 110.899 201 75C201 39.1015 171.899 10 136 10Z"/>
</mask>
<path d="M-33 10H-41V2H-33V10ZM-33 140V148H-41V140H-33ZM136 18H-33V2H136V18ZM-25 10V140H-41V10H-25ZM-33 132H136V148H-33V132ZM136 132C167.48 132 193 106.48 193 75H209C209 115.317 176.317 148 136 148V132ZM193 75C193 43.5198 167.48 18 136 18V2C176.317 2 209 34.6832 209 75H193Z" fill="#C0C1C7" mask="url(#path-3-inside-2_96_413)"/>
<circle cx="138" cy="72" r="60" fill="#C0C1C7"/>
</svg>
