<svg width="1444" height="241" viewBox="0 0 1444 241" fill="none" xmlns="http://www.w3.org/2000/svg">
<g filter="url(#filter0_i_142_745)">
<path d="M228.559 2C263.818 2.00002 307.103 2.00018 359.093 46.1846C394.727 76.469 428.111 95.5439 493.003 95.5439H950.997C1015.89 95.5439 1049.27 76.469 1084.91 46.1846C1136.9 2.00019 1180.18 2.00002 1215.44 2H1442V238.845H2V2H228.559Z" fill="#E1E2E6"/>
</g>
<path d="M228.559 2L228.559 0.143852H228.559V2ZM359.093 46.1846L360.295 44.7702L360.295 44.7702L359.093 46.1846ZM1084.91 46.1846L1083.71 44.7702L1083.71 44.7702L1084.91 46.1846ZM1215.44 2L1215.44 0.143852L1215.44 0.143852L1215.44 2ZM1442 2H1443.86V0.143852H1442V2ZM1442 238.845V240.701H1443.86V238.845H1442ZM2 238.845H0.143852V240.701H2V238.845ZM2 2V0.143852H0.143852V2H2ZM228.559 2L228.559 3.85615C246.199 3.85616 265.619 3.86311 287.094 9.32208C308.538 14.7731 332.104 25.6837 357.891 47.5989L359.093 46.1846L360.295 44.7702C334.092 22.5011 310.02 11.3194 288.009 5.72421C266.029 0.137002 246.178 0.143862 228.559 0.143852L228.559 2ZM359.093 46.1846L357.891 47.5989C375.777 62.8003 393.204 75.2791 414.373 83.9389C435.551 92.6021 460.367 97.4001 493.003 97.4001V95.5439V93.6878C460.747 93.6878 436.425 88.9484 415.779 80.5029C395.125 72.0542 378.042 59.8533 360.295 44.7702L359.093 46.1846ZM493.003 95.5439V97.4001H950.997V95.5439V93.6878H493.003V95.5439ZM950.997 95.5439V97.4001C983.633 97.4001 1008.45 92.6021 1029.63 83.9389C1050.8 75.2791 1068.22 62.8003 1086.11 47.5989L1084.91 46.1846L1083.71 44.7702C1065.96 59.8533 1048.87 72.0542 1028.22 80.503C1007.58 88.9484 983.253 93.6878 950.997 93.6878V95.5439ZM1084.91 46.1846L1086.11 47.5989C1111.9 25.6837 1135.46 14.7731 1156.91 9.32209C1178.38 3.86311 1197.8 3.85616 1215.44 3.85615L1215.44 2L1215.44 0.143852C1197.82 0.143862 1177.97 0.137005 1155.99 5.72421C1133.98 11.3194 1109.91 22.5011 1083.71 44.7702L1084.91 46.1846ZM1215.44 2V3.85615H1442V2V0.143852H1215.44V2ZM1442 2H1440.14V238.845H1442H1443.86V2H1442ZM1442 238.845V236.989H2V238.845V240.701H1442V238.845ZM2 238.845H3.85615V2H2H0.143852V238.845H2ZM2 2V3.85615H228.559V2V0.143852H2V2Z" fill="#36BFED"/>
<defs>
<filter id="filter0_i_142_745" x="0.143799" y="0.143799" width="1443.71" height="265.801" filterUnits="userSpaceOnUse" color-interpolation-filters="sRGB">
<feFlood flood-opacity="0" result="BackgroundImageFix"/>
<feBlend mode="normal" in="SourceGraphic" in2="BackgroundImageFix" result="shape"/>
<feColorMatrix in="SourceAlpha" type="matrix" values="0 0 0 0 0 0 0 0 0 0 0 0 0 0 0 0 0 0 127 0" result="hardAlpha"/>
<feOffset dy="25.2436"/>
<feGaussianBlur stdDeviation="14.8492"/>
<feComposite in2="hardAlpha" operator="arithmetic" k2="-1" k3="1"/>
<feColorMatrix type="matrix" values="0 0 0 0 0 0 0 0 0 0 0 0 0 0 0 0 0 0 0.09 0"/>
<feBlend mode="normal" in2="shape" result="effect1_innerShadow_142_745"/>
</filter>
</defs>
</svg>
